<svg width="36" height="36" viewBox="0 0 36 36" fill="none" xmlns="http://www.w3.org/2000/svg">
<path d="M18 31.5C17.0325 30.642 15.939 29.7495 14.7825 28.8H14.7675C10.695 25.47 6.0795 21.702 4.041 17.187C3.37128 15.7496 3.01636 14.1857 2.99999 12.6C2.99551 10.4242 3.86816 8.33849 5.42072 6.81416C6.97327 5.28983 9.07468 4.4556 11.25 4.50001C13.0209 4.50281 14.7538 5.01463 16.242 5.97451C16.896 6.39896 17.4876 6.91239 18 7.50001C18.5152 6.9147 19.1071 6.40157 19.7595 5.97451C21.2471 5.01444 22.9795 4.50259 24.75 4.50001C26.9253 4.4556 29.0267 5.28983 30.5793 6.81416C32.1318 8.33849 33.0045 10.4242 33 12.6C32.9847 14.1882 32.6298 15.7548 31.959 17.1945C29.9205 21.7095 25.3065 25.476 21.234 28.8L21.219 28.812C20.061 29.7555 18.969 30.648 18.0015 31.512L18 31.5ZM11.25 7.50001C9.85277 7.48252 8.50511 8.01727 7.5 8.98801C6.53158 9.93926 5.99034 11.2426 5.99988 12.6C6.01699 13.7558 6.27874 14.8948 6.768 15.942C7.73027 17.8901 9.02867 19.6531 10.6035 21.15C12.09 22.65 13.8 24.102 15.279 25.323C15.6885 25.6605 16.1055 26.001 16.5225 26.3415L16.785 26.556C17.1855 26.883 17.5995 27.222 18 27.555L18.0195 27.537L18.0285 27.5295H18.0375L18.051 27.519H18.0585H18.066L18.093 27.4965L18.1545 27.447L18.165 27.438L18.1815 27.426H18.1905L18.204 27.414L19.2 26.5965L19.461 26.382C19.8825 26.0385 20.2995 25.698 20.709 25.3605C22.188 24.1395 23.8995 22.689 25.386 21.1815C26.9611 19.6853 28.2595 17.9228 29.2215 15.975C29.7196 14.9187 29.9851 13.7678 30.0001 12.6C30.0063 11.2468 29.4653 9.94845 28.5 9.00001C27.4968 8.02489 26.1489 7.48573 24.75 7.50001C23.0429 7.4855 21.4109 8.20106 20.265 9.46651L18 12.0765L15.735 9.46651C14.5891 8.20106 12.9571 7.4855 11.25 7.50001Z" fill="#2E3A59"/>
</svg>
